<?xml version="1.0" encoding="UTF-8" standalone="no"?>
<!-- Created with Inkscape (http://www.inkscape.org/) -->

<svg
   version="1.1"
   id="svg437"
   width="39mm"
   height="20mm"
   viewBox="0 0 147.40158 75.59055"
   sodipodi:docname="crystal_logo_36x18.svg"
   inkscape:version="1.1.1 (3bf5ae0d25, 2021-09-20)"
   xmlns:inkscape="http://www.inkscape.org/namespaces/inkscape"
   xmlns:sodipodi="http://sodipodi.sourceforge.net/DTD/sodipodi-0.dtd"
   xmlns="http://www.w3.org/2000/svg"
   xmlns:svg="http://www.w3.org/2000/svg">
  <defs
     id="defs441">
    <filter
       style="color-interpolation-filters:sRGB;"
       inkscape:label="Blur"
       id="filter583"
       x="-0.0072533476"
       y="-0.01419125"
       width="1.0145067"
       height="1.0283825" />
    <filter
       style="color-interpolation-filters:sRGB;"
       inkscape:label="Blur"
       id="filter587"
       x="-0.013580216"
       y="-0.0074240816"
       width="1.0271604"
       height="1.0148482" />
    <filter
       inkscape:collect="always"
       style="color-interpolation-filters:sRGB"
       id="filter607"
       x="-0.0054400106"
       y="-0.010643437"
       width="1.01088"
       height="1.0212869">
      <feGaussianBlur
         inkscape:collect="always"
         stdDeviation="0.31169511"
         id="feGaussianBlur609" />
    </filter>
    <filter
       inkscape:collect="always"
       style="color-interpolation-filters:sRGB"
       id="filter611"
       x="-0.010185161"
       y="-0.0055680608"
       width="1.0203703"
       height="1.0111361">
      <feGaussianBlur
         inkscape:collect="always"
         stdDeviation="0.1094077"
         id="feGaussianBlur613" />
    </filter>
  </defs>
  <sodipodi:namedview
     id="namedview439"
     pagecolor="#ffffff"
     bordercolor="#666666"
     borderopacity="1.0"
     inkscape:pageshadow="2"
     inkscape:pageopacity="0.0"
     inkscape:pagecheckerboard="0"
     showgrid="false"
     inkscape:zoom="1"
     inkscape:cx="329"
     inkscape:cy="342"
     inkscape:window-width="1920"
     inkscape:window-height="1017"
     inkscape:window-x="-8"
     inkscape:window-y="-8"
     inkscape:window-maximized="1"
     inkscape:current-layer="g447"
     width="373px"
     lock-margins="true"
     units="mm"
     inkscape:document-units="mm" />
  <g
     inkscape:groupmode="layer"
     inkscape:label="Image"
     id="g443"
     style="display:inline">
    <g
       id="g447"
       transform="matrix(0.96358672,0,0,0.96358672,73.113234,34.615371)"
       style="display:inline;opacity:1">
      <path
         style="display:inline;fill:#f68e1d;stroke-width:0.0432456;filter:url(#filter611)"
         d="m -32.967798,25.644286 c -4.565373,-0.305922 -8.883109,-1.896919 -12.542299,-4.621617 -0.959398,-0.714381 -1.605931,-1.27977 -2.595924,-2.27002 -1.960301,-1.960871 -3.2705,-3.785008 -4.49744,-6.261688 -1.329107,-2.6828779 -2.10068,-5.4976719 -2.356203,-8.5957241 -0.06301,-0.7639854 -0.06313,-2.7519528 -1.94e-4,-3.54614114 0.327973,-4.13960536 1.627772,-7.89970096 3.916712,-11.33035976 0.917606,-1.375311 1.723326,-2.353958 2.93826,-3.568893 1.212932,-1.212932 2.185725,-2.013967 3.568895,-2.938773 3.20232,-2.141109 6.706751,-3.41756 10.572776,-3.851018 0.813787,-0.09124 2.524219,-0.156693 3.698284,-0.14152 l 1.016273,0.01314 0.01108,3.183542 0.01108,3.18354 -1.697669,0.02412 c -2.19898,0.03125 -3.102954,0.129959 -4.638863,0.506573 -4.944554,1.212433 -9.176437,4.6698373 -11.392059,9.3071871 -0.729318,1.5264821 -1.263157,3.2805494 -1.490957,4.89891166 -0.250334,1.77845774 -0.228046,3.62393134 0.06476,5.36246114 1.188594,7.0572521 6.767467,12.7053441 13.835014,14.0066471 1.149438,0.211634 1.694321,0.254979 3.546145,0.282046 l 1.751446,0.0256 v 3.178557 3.178561 l -1.600086,0.0046 c -0.880048,0.0025 -1.833615,-0.01085 -2.119037,-0.02997 z"
         id="path455" />
      <path
         style="display:inline;fill:#c3112f;stroke-width:0.0432456;filter:url(#filter607)"
         d="m -20.794151,38.096658 c -1.081593,-0.0716 -2.870412,-0.604676 -3.93536,-1.172746 -0.780256,-0.416212 -1.063149,-0.629271 -1.176876,-0.886372 -0.08634,-0.195197 -0.987686,-4.375572 -0.955654,-4.432232 0.02568,-0.04539 2.744445,-1.943603 2.760612,-1.927406 0.0073,0.0074 0.05466,0.175406 0.105231,0.37349 0.270433,1.059537 0.695877,2.228316 1.096722,3.013028 0.819207,1.603684 2.166489,2.889304 3.381085,3.22635 1.062409,0.294811 2.081446,-0.06062 3.040754,-1.060589 0.837443,-0.87296 1.530401,-2.197587 3.019426,-5.771913 1.782076,-4.277757 2.551553,-6.453158 2.645743,-7.479723 l 0.02969,-0.323687 1.8800853,-0.836002 c 1.7773885,-0.79037 1.8839653,-0.83189 1.9511732,-0.760437 0.039091,0.04156 0.480286,0.585348 0.9804351,1.208431 l 0.9093554,1.132885 0.025156,0.532082 c 0.013815,0.292647 0.035809,0.921289 0.048914,1.39698 0.050514,1.838059 0.2035492,4.642392 0.2638634,4.835163 0.074427,0.237911 0.1734527,0.01702 0.7815481,-1.743083 0.7956292,-2.302908 0.9790667,-2.771297 1.9830159,-5.063442 L -1.7965824,21.986128 -4.7555132e-4,21.00336 1.7956349,20.020599 2.0749436,20.299887 2.3542561,20.579179 2.041821,22.194518 c -0.1718244,0.888449 -0.3433529,1.663983 -0.3811824,1.723474 -0.094035,0.147796 -1.75144405,2.165356 -1.76647545,2.150303 -0.00665,-0.0066 -0.1192961,-0.352049 -0.2503713,-0.767658 -0.3152576,-0.999405 -0.74584225,-2.168139 -0.81441905,-2.210528 -0.096803,-0.05987 -0.1533214,0.05717 -0.3580615,0.741374 -0.7518529,2.512763 -1.4064096,5.703026 -1.7523516,8.541017 -0.067034,0.549883 -0.1081275,0.752834 -0.1630502,0.805233 -0.2741076,0.261635 -4.0902977,3.237834 -4.114942,3.2092 -0.016933,-0.01966 -0.4259907,-2.692188 -0.9089616,-5.938848 -0.4830035,-3.246669 -0.8876349,-5.928328 -0.8991711,-5.959223 -0.066334,-0.177487 -0.2163619,0.08701 -1.2340588,2.175633 -2.616408,5.369525 -3.243128,6.573831 -4.078376,7.836905 -0.541936,0.819523 -0.9914,1.370468 -1.571247,1.926092 -0.531644,0.50947 -1.015862,0.852928 -1.565532,1.110521 -0.987916,0.462958 -1.883875,0.63105 -2.977749,0.558645 z m -12.36825,-1.795825 c -5.072064,-0.186488 -9.836172,-1.409429 -14.292685,-3.668914 -9.379482,-4.755406 -16.084458,-13.582463 -18.11623,-23.8499209 -0.90214,-4.5589126 -0.872375,-9.27319584 0.0871,-13.7953612 1.705437,-8.0380139 6.313741,-15.2455449 12.926142,-20.2168929 2.672429,-2.009191 5.521957,-3.569686 8.643261,-4.733335 2.894478,-1.079085 5.855541,-1.739579 9.022584,-2.012575 0.41624,-0.03588 0.893023,-0.0684 1.059521,-0.07228 0.292659,-0.0068 0.295534,-0.0079 0.08649,-0.03308 -0.352778,-0.04248 1.207727,-0.09011 2.952263,-0.09011 1.419484,0 1.573551,0.0068 1.54991,0.06841 -0.01444,0.03762 -0.02625,2.117747 -0.02625,4.6225 v 4.554098 l -2.173095,0.02089 c -2.312032,0.02222 -2.923181,0.06112 -4.313755,0.274558 -2.245236,0.344622 -4.358747,0.958946 -6.369417,1.851372 -7.353362,3.263752 -12.772659,9.956069 -14.382299,17.7607612 -0.404993,1.9637054 -0.503032,2.96872046 -0.501513,5.1412182 0.0013,1.8282093 0.03706,2.3486936 0.261593,3.8056165 1.230129,7.9816471 6.296832,14.9184441 13.553386,18.5558381 2.800875,1.403963 5.601044,2.204801 8.930227,2.554 0.261635,0.02742 1.487649,0.06167 2.724473,0.07603 l 2.248775,0.02613 v 4.584035 4.584046 l -1.77307,0.0022 c -0.97519,0.0016 -1.919026,-0.0033 -2.097414,-0.0095 z m 57.779842,-3.982385 c -0.700621,-2.929333 -0.903119,-3.649417 -1.124592,-3.99861 -0.146409,-0.230875 -0.395588,-0.427434 -0.679112,-0.535712 -0.106362,-0.04063 -0.185227,-0.0952 -0.175267,-0.121251 0.09292,-0.243068 0.657298,-2.018459 0.767696,-2.415087 0.131415,-0.471994 0.148992,-0.508138 0.247465,-0.508138 0.178019,0 1.146788,0.208277 1.526137,0.328127 0.502845,0.158843 0.760095,0.418237 1.092572,1.101769 0.422922,0.869504 0.723062,2.069627 1.175395,4.700159 0.01709,0.09907 0.04772,0.140549 0.103993,0.140549 0.06146,0 0.129733,-0.121904 0.296661,-0.529744 0.372077,-0.908977 0.786164,-2.047283 1.12088,-3.081268 0.17709,-0.547056 0.338598,-1.036476 0.358861,-1.087632 0.03178,-0.08014 0.173738,-0.126173 1.029298,-0.333797 0.545818,-0.132493 1.070599,-0.253353 1.166161,-0.268639 l 0.173761,-0.02779 0.258865,0.325758 c 0.552044,0.694699 1.019649,1.604211 1.218882,2.370797 0.07026,0.270421 0.206232,0.858126 0.302111,1.306078 0.285905,1.335253 0.330904,1.476369 0.455543,1.428531 0.110627,-0.04244 0.892073,-2.069581 1.141175,-2.960328 0.245312,-0.877184 0.194548,-1.352333 -0.192953,-1.805046 l -0.149451,-0.174615 0.617126,-0.324684 c 1.042108,-0.548284 1.623343,-0.814525 1.714821,-0.785511 0.134647,0.04276 0.672058,0.636686 0.78655,0.869322 0.09339,0.189753 0.104763,0.268615 0.102524,0.710752 -0.0016,0.342325 -0.03331,0.645597 -0.101459,0.973023 -0.122951,0.590997 -0.458251,1.625869 -0.574792,1.774022 -0.04789,0.06085 -0.595863,0.490898 -1.217729,0.955649 -0.621882,0.464748 -1.159877,0.8838 -1.195561,0.931254 -0.03566,0.04741 -0.27921,0.468481 -0.541172,0.935663 -0.470707,0.839444 -0.478346,0.849846 -0.648682,0.887379 -0.98314,0.216569 -1.995811,0.492628 -2.403996,0.655286 -0.05755,0.02293 -0.08188,-0.03707 -0.143258,-0.352949 -0.277557,-1.428701 -1.01402,-3.714066 -1.222694,-3.794147 -0.08611,-0.03301 -0.230286,0.126021 -0.787102,0.868408 -0.532763,0.710326 -0.85842,1.222789 -1.280513,2.015035 l -0.302723,0.568193 -0.583829,0.119571 c -0.630668,0.129171 -1.400253,0.367285 -1.734516,0.536658 -0.114755,0.05816 -0.215188,0.105726 -0.223149,0.105726 -0.008,0 -0.176261,-0.676243 -0.373927,-1.50277 z m 37.663712,-2.35346 c 0,-4.585347 0.06029,-6.639172 0.239503,-8.22422 0.03451,-0.305523 0.06281,-0.563846 0.06281,-0.57407 0,-0.102239 2.545584,-0.702067 3.454316,-0.813926 0.212163,-0.02613 0.229898,-0.02179 0.202613,0.04928 -0.01644,0.04286 -0.08641,0.268153 -0.15549,0.500624 -0.483729,1.62819 -0.71129,4.336795 -0.682067,8.118283 0.01507,1.952316 0.0148,1.951194 0.325356,1.362253 0.254389,-0.482463 0.667914,-1.466711 0.853966,-2.032543 0.279735,-0.850761 0.38495,-1.461368 0.384399,-2.230736 v -0.673925 l 1.400499,-0.258637 c 0.770274,-0.142263 1.40934,-0.244381 1.420113,-0.226898 0.03151,0.05103 -0.100389,0.91257 -0.199457,1.302413 -0.135952,0.535047 -0.199887,0.649919 -0.72879,1.309345 -0.702997,0.87654 -1.038907,1.444177 -0.858453,1.450679 0.979018,0.03528 1.481575,0.212234 2.012863,0.708673 0.30748,0.287284 0.815988,0.942124 1.09077,1.404673 l 0.181613,0.305694 -0.423648,0.508527 c -0.76762,0.92138 -1.681343,1.914688 -1.71813,1.86779 -0.008,-0.01025 -0.06902,-0.125679 -0.135477,-0.256507 -0.420843,-0.828463 -1.266185,-1.628012 -2.397046,-2.26723 -0.293539,-0.165902 -0.399973,-0.187695 -0.475041,-0.09723 -0.09846,0.118651 -0.774495,1.48852 -0.856542,1.735626 l -0.08555,0.257714 -1.315979,0.287001 c -0.723788,0.157829 -1.379214,0.301263 -1.456527,0.318726 l -0.14055,0.03172 V 29.964978 Z M 17.43502,33.474346 c -1.385103,-0.48592 -2.210338,-1.195055 -2.540384,-2.182998 -0.105657,-0.316278 -0.115489,-0.403464 -0.114642,-1.016258 4.05e-4,-0.44688 0.0397,-1.001863 0.117275,-1.664955 0.161843,-1.383333 0.164776,-1.419638 0.120417,-1.487929 -0.0318,-0.04892 -0.124982,-0.05524 -0.474676,-0.03228 l -0.435152,0.02852 0.285121,-0.486642 c 0.156832,-0.26765 0.379999,-0.653053 0.495941,-0.856477 l 0.210816,-0.369828 v -0.781913 -0.781898 l 0.335146,-0.02928 c 0.184337,-0.01608 0.829659,-0.0865 1.434069,-0.156448 0.604401,-0.06994 1.107544,-0.12717 1.118072,-0.12717 0.01057,0 0.01227,0.306504 0.0037,0.681128 l -0.01531,0.68113 0.432456,0.03464 c 0.237826,0.01904 0.70002,0.02572 1.027064,0.01487 0.532573,-0.01766 0.594641,-0.01223 0.594603,0.0519 0,0.07976 -0.250304,1.501777 -0.283672,1.611899 -0.02534,0.08369 -0.145934,0.102708 -1.079657,0.170487 -0.416236,0.03022 -0.712955,0.07102 -0.746539,0.102688 -0.03986,0.03759 -0.06848,0.349179 -0.100416,1.093347 -0.0371,0.864794 -0.03407,1.102417 0.01815,1.404872 0.140363,0.813366 0.564041,1.317963 1.369892,1.631475 0.157199,0.06118 0.29112,0.126721 0.297575,0.145625 0.02217,0.06498 -1.571912,2.450275 -1.637581,2.450388 -0.03565,0 -0.230304,-0.0579 -0.432453,-0.128822 z m 27.29159,0.07865 c -1.708879,-0.189882 -3.428346,-1.195906 -4.040815,-2.364238 -0.457476,-0.872668 -0.403396,-2.029251 0.145814,-3.119195 0.405722,-0.805148 1.288966,-1.791218 2.269693,-2.533881 0.871766,-0.660203 0.796013,-0.625845 1.278263,-0.579809 0.823518,0.07861 2.413322,0.130743 3.109843,0.102031 l 0.712235,-0.02937 -0.06643,0.104215 c -0.254999,0.399988 -0.389368,0.654913 -0.377366,0.715945 0.0077,0.03909 0.1466,0.141225 0.308719,0.226993 0.920149,0.486779 1.379171,1.491162 1.314569,2.876529 -0.04931,1.058515 -0.466212,2.118048 -1.103242,2.804078 -0.233081,0.251035 -0.823136,0.653884 -1.327734,0.906524 -0.441947,0.221253 -0.783536,0.427436 -1.182991,0.713995 -0.35286,0.253133 -0.350851,0.252797 -1.040562,0.176175 z m 1.464304,-1.999219 c 0.0812,-0.09782 0.212218,-0.817303 0.257293,-1.412906 0.09367,-1.23751 -0.118168,-2.132052 -0.636636,-2.68817 -0.425063,-0.455985 -1.223698,-0.898381 -1.646363,-0.912028 -0.192965,-0.0062 -0.198409,-0.0025 -0.315551,0.209885 -0.425276,0.771406 -0.530967,1.828945 -0.272079,2.722341 0.131409,0.453417 0.210148,0.613543 0.475238,0.966168 0.374112,0.497667 0.937934,0.853601 1.729711,1.091937 0.324112,0.09755 0.345347,0.09873 0.408387,0.02276 z M 6.6019707,33.405023 C 5.9226687,33.30391 5.598714,33.188682 5.2464051,32.922813 4.6506594,32.473273 4.3571986,31.831252 4.2427355,30.727049 4.1878363,30.197382 4.2155537,27.311132 4.2801663,26.833022 l 0.02977,-0.220278 1.0787318,-0.914937 c 0.7936236,-0.673105 1.1079416,-0.914815 1.1892506,-0.914568 0.407342,0.0012 3.001653,0.227825 3.256654,0.284441 0.6941063,0.154054 1.1755303,0.490943 1.4655043,1.025588 0.140894,0.259776 0.145293,0.282825 0.141935,0.743792 -0.002,0.261635 -0.03601,0.641113 -0.0758,0.843285 -0.05578,0.283468 -0.201836,1.277214 -0.201836,1.373202 0,0.03666 -1.1688233,0.571445 -1.4803793,0.677346 -0.46397,0.15768 -1.105609,0.239746 -1.881972,0.24069 -0.612948,0.0012 -0.659502,0.0065 -0.659502,0.08093 0,0.111401 0.747992,0.823473 1.040279,0.990304 0.280184,0.159948 0.668868,0.270498 0.947301,0.269425 0.474675,-0.0016 1.1233913,-0.223917 1.5548863,-0.532321 0.31585,-0.225763 0.310694,-0.225318 0.238762,-0.02009 -0.249922,0.713141 -0.78186,1.519398 -1.2687973,1.923032 -0.314542,0.260725 -0.836136,0.531389 -1.236683,0.641746 -0.254791,0.07019 -1.511209,0.125809 -1.81632,0.0804 z m 2.248569,-4.297392 c 0.0636,-0.0528 0.07075,-0.135931 0.05556,-0.646616 -0.01434,-0.484138 -0.03496,-0.63076 -0.118252,-0.842989 -0.130361,-0.332105 -0.431162,-0.635381 -0.802474,-0.809146 -0.331124,-0.154957 -0.771195,-0.216296 -0.810826,-0.113013 -0.04865,0.126817 -0.262628,2.35495 -0.233431,2.430997 0.02775,0.07227 0.09386,0.0765 0.933152,0.05957 0.689673,-0.01393 0.920543,-0.03257 0.976276,-0.07881 z M 55.207771,33.21608 c -0.669202,-0.05866 -0.908946,-0.125108 -1.243754,-0.344678 -0.432227,-0.283468 -0.903212,-0.790496 -1.01711,-1.094943 -0.200555,-0.536019 -0.240781,-0.9204 -0.234081,-2.236546 0.0056,-1.107541 0.08925,-4.635773 0.110267,-4.653548 0.01376,-0.01167 2.771905,0.243241 2.822315,0.260842 0.02801,0.0098 0.07599,0.429121 0.122275,1.069197 0.04188,0.579215 0.09281,1.070279 0.113138,1.091301 0.09096,0.09384 0.172549,-0.04575 0.342514,-0.586028 0.434411,-1.380777 0.507329,-1.532586 0.849006,-1.767674 0.369679,-0.254345 0.590775,-0.316887 1.121682,-0.31734 0.361875,-3.9e-4 0.558667,0.02276 0.822366,0.09654 0.190664,0.05333 0.371169,0.112091 0.401113,0.130601 0.04177,0.02585 -0.01163,0.289427 -0.229554,1.133191 -0.339783,1.315557 -0.579805,2.168186 -0.623449,2.214663 -0.01753,0.01868 -0.205382,-0.07549 -0.417419,-0.209288 -0.472704,-0.298254 -1.025743,-0.581487 -1.135452,-0.581487 -0.106003,0 -0.584921,0.667571 -0.853167,1.189258 l -0.200123,0.389207 0.0291,0.410828 c 0.04145,0.58402 0.10325,1.000361 0.158275,1.066654 0.06609,0.07965 0.585451,0.229292 1.083671,0.312244 l 0.41927,0.06983 -0.250904,0.648683 c -0.138017,0.356785 -0.353128,0.896814 -0.478056,1.200078 l -0.22712,0.55139 -0.568299,-0.0062 c -0.312568,-0.0037 -0.725006,-0.01993 -0.916562,-0.03674 z M -18.523758,13.837408 c -1.021421,-0.0838 -2.056397,-0.284436 -2.887696,-0.559864 -2.220951,-0.735865 -3.737117,-2.416119 -4.076141,-4.5172729 -0.08958,-0.555224 -0.0888,-1.685469 0.0016,-2.3784083 0.34723,-2.6603183 1.701373,-5.3178017 3.702577,-7.26621094 2.467656,-2.40257716 6.23555,-3.84952066 9.411899,-3.61435476 0.590633,0.043732 1.47438,0.1566571 1.510779,0.1930554 0.0086,0.00866 0.145211,0.4980933 0.303462,1.0876485 l 0.287738,1.0719227 -0.09472,0.6097122 c -0.174353,1.12277686 -0.919162,4.1799882 -1.018727,4.1817116 -0.0209,3.881e-4 -0.116893,-0.1804524 -0.213363,-0.4018106 -0.09644,-0.2213582 -0.408529,-0.8669053 -0.693537,-1.43455184 -0.406478,-0.80960449849 -0.54593,-1.0489634 -0.646929,-1.1103779 -0.16431,-0.0999233 -0.919939,-0.3511918 -1.47862,-0.4916769 -2.429239,-0.61087416 -4.848904,-0.29693796 -6.455918,0.8376174 -0.991133,0.6997691 -1.853152,1.84257464 -2.271142,3.01091224 -0.236914,0.6623054 -0.310993,1.1401736 -0.311134,2.0074109 0,0.923658 0.04558,1.1624633 0.343729,1.7946919 0.40848,0.8661164 0.993138,1.4029924 2.18601,2.0073734 2.54692,1.2904299 6.136754,1.9535249 11.5030145,2.1247889 0.8203943,0.02617 1.4940699,0.051 1.4970071,0.05514 0.00701,0.0098 -1.5481102,2.045104 -1.6047949,2.100351 -0.023818,0.02321 -0.3254297,0.09169 -0.6703137,0.152171 -1.432075,0.251216 -3.17861,0.454871 -4.658036,0.543179 -0.855412,0.05105 -3.028698,0.04919 -3.666758,-0.0032 z M 7.8560847,13.682961 C 6.5984667,13.52721 5.5969318,13.311306 4.8604957,13.037223 4.3879024,12.861344 3.5936589,12.467111 3.4117727,12.318111 3.3295486,12.250762 3.2109941,12.025736 3.0333816,11.599846 2.8911306,11.258745 2.7747231,10.961096 2.7747231,10.9384 c 0,-0.06508 0.8965992,-1.3625089 1.0823416,-1.5662079 0.018473,-0.0203 0.164347,0.06333 0.3241209,0.185792 0.5597469,0.42902 0.9208909,0.5625249 2.2244141,0.8223049 1.135721,0.226342 1.513699,0.280228 1.570101,0.223831 0.03095,-0.03099 0.0194,-0.390094 -0.03739,-1.1605229 -0.06047,-0.82048 -0.0819,-1.553356 -0.08095,-2.7698263 0.0012,-1.513908 -0.0046,-1.6541462 -0.07061,-1.6541462 -0.112069,0 -2.4432622,3.0247415 -2.6078931,3.3837475 C 5.0640613,8.6537591 5.0292585,8.6950831 4.9330958,8.6952781 4.7805116,8.6956671 4.1873553,8.5423501 3.911028,8.4312371 3.6453135,8.3243971 3.6675558,8.3985891 3.5751722,7.3116431 3.4444579,5.7740667 3.4167192,5.1238413 3.393031,3.0411373 L 3.3688088,0.91128846 h 0.2231295 c 0.683892,0 2.1220257,-0.2227189 2.8911024,-0.4477394 l 0.356782,-0.1043838 v 0.1274086 c 0,0.070076 -0.0201,0.4035048 -0.04462,0.74095464 -0.07922,1.0896962 -0.205976,3.6784547 -0.183008,3.7382742 0.01228,0.031937 0.05283,0.052185 0.09019,0.044988 0.163706,-0.031528 1.18921,-1.9539036 1.402545,-2.6291501 0.134061,-0.4242762 0.309219,-1.1452899 0.380846,-1.56765674 0.04307,-0.2540204 0.06155,-0.2919924 0.142372,-0.2925609 0.1231,-9.829e-4 3.2031533,0.2278692 3.2183273,0.2390045 0.0065,0.00475 -0.02759,0.24984724 -0.0757,0.54464634 -0.135749,0.8316618 -0.369512,2.8874586 -0.58418,5.1374068 -0.211448,2.2162485 -0.281743,2.7794035 -0.413297,3.3111815 -0.22093,0.8931429 -1.0368083,2.1264399 -2.3396303,3.5366819 -0.214243,0.231924 -0.402647,0.418747 -0.418672,0.415191 -0.01604,-0.0037 -0.08757,-0.01373 -0.158918,-0.02256 z M 40.542455,9.0522831 c 0.05785,-0.370245 0.117534,-1.523453 0.126997,-2.4531556 0.01201,-1.1826144 0.0099,-1.1864416 -0.384886,-0.70549 -0.318459,0.3879477 -1.518476,1.6882646 -2.379768,2.5786696 l -0.641659,0.663338 -0.516449,-0.157867 c -0.284049,-0.08683 -0.664976,-0.215149 -0.846522,-0.285157 L 35.570077,8.5653291 35.454132,7.7114471 C 35.28113,6.4376942 35.240041,5.8568302 35.263663,5.0196246 c 0.01786,-0.6323215 0.04008,-0.8278668 0.13485,-1.1888874 0.21214,-0.8077321 0.518637,-1.3214203 1.231489,-2.0641157 0.393164,-0.4096167 1.452465,-1.35598844 1.617964,-1.44548834 0.07764,-0.041979 1.419818,0.1916576 3.01539,0.5248886 0.850601,0.17764784 1.277335,0.36471544 1.649623,0.72314824 0.394988,0.3802797 0.581989,0.7768614 0.713513,1.5131097 0.06087,0.3407176 0.07248,0.7686418 0.07604,2.802257 0.0022,1.3200734 0.01392,2.4277344 0.02583,2.4614714 0.01513,0.0429 -0.03036,0.07315 -0.151351,0.100617 -0.681477,0.154771 -1.543343,0.370469 -2.210514,0.55323 -0.430895,0.118027 -0.798258,0.214597 -0.816402,0.214597 -0.01813,0 -0.02157,-0.07298 -0.0076,-0.162169 z M 38.735049,6.3061815 c 0.426122,-0.473846 1.479347,-1.9671885 1.723539,-2.443768 0.09062,-0.1768758 0.06147,-0.2363634 -0.2533,-0.5169203 C 39.825994,3.0074375 38.960251,2.6345463 38.39834,2.5671952 l -0.20542,-0.02462 v 0.2763092 c 0,0.3632036 0.170337,3.4914429 0.197213,3.6170332 0.03238,0.151088 0.123295,0.116899 0.34509,-0.1297364 z m 10.961213,2.8251096 c -1.112016,-0.36705 -1.796037,-1.080599 -2.089538,-2.179754 -0.08672,-0.3247381 -0.09437,-0.4553105 -0.09437,-1.6075684 0,-0.6897701 0.02386,-2.1590411 0.05302,-3.265049 0.0291,-1.10600704 0.06585,-2.77252164 0.08152,-3.7033634 l 0.0285,-1.6924465 0.696455,-0.1777506 c 0.383072,-0.097764 1.110499,-0.2878311 1.616506,-0.422371 0.506008,-0.1345382 0.927915,-0.2367111 0.937575,-0.2270485 0.0097,0.00967 -0.06733,1.5062225 -0.171102,3.32569316 -0.354099,6.20872614 -0.380719,6.78519394 -0.31698,6.86200224 0.0564,0.067949 1.000106,0.6983413 1.398899,0.934454 l 0.203579,0.120523 -0.64227,0.65846 c -0.35326,0.362153 -0.787229,0.83822 -0.964358,1.05792 -0.354865,0.44014 -0.358086,0.441522 -0.737446,0.316299 z m -19.590285,-0.17769 c -0.500214,-0.171595 -1.186605,-0.516507 -1.506681,-0.757112 -0.565155,-0.424828 -0.983601,-1.036601 -1.137692,-1.6632656 -0.0876,-0.3562657 -0.06422,-1.2262494 0.06331,-2.3568886 0.06173,-0.5470571 0.124661,-1.1220943 0.139862,-1.2778543 0.03784,-0.3876889 0.0092,-0.4082936 -0.483582,-0.3480121 -0.207641,0.025396 -0.385791,0.037906 -0.395898,0.027798 -0.0101,-0.010113 0.197764,-0.3941786 0.461964,-0.8534897 l 0.480324,-0.83511244 v -0.784986 -0.7849887 l 0.248666,-0.026122 c 0.328518,-0.034509 2.081829,-0.2300533 2.406972,-0.2684376 l 0.255508,-0.030163 -0.02998,0.6718585 c -0.02659,0.5963633 -0.02211,0.6748732 0.03992,0.698687 0.03844,0.014754 0.506187,0.026832 1.039404,0.026832 0.894399,0 0.9695,0.00586 0.969702,0.075679 0.0011,0.1829428 -0.272964,1.594327 -0.317924,1.6407424 -0.02949,0.03043 -0.314982,0.071 -0.698573,0.099268 -1.03656,0.076387 -1.092288,0.084574 -1.1258,0.165461 -0.0166,0.040161 -0.03992,0.5984523 -0.05176,1.2406499 -0.02364,1.285216 0.0038,1.5052277 0.240583,1.9425902 0.221943,0.4095195 0.681439,0.762623 1.250498,0.960922 0.124879,0.043514 0.225497,0.089146 0.223613,0.1014008 -0.009,0.059152 -1.623948,2.4399682 -1.661533,2.4495792 -0.02375,0.0061 -0.208651,-0.04568 -0.410822,-0.115029 z m -12.236779,-0.09007 c -0.817653,-0.07256 -1.58417,-0.272274 -2.261324,-0.589183 -0.292534,-0.136914 -0.421648,-0.220025 -0.421648,-0.271436 0,-0.06774 0.246149,-0.752711 0.405328,-1.1278692 l 0.06596,-0.155498 0.553602,0.1845952 c 0.958254,0.319538 2.019662,0.47622 2.985564,0.440728 0.653106,-0.024 0.991981,-0.10391 1.488537,-0.351003 C 21.134922,6.7700673 21.169,6.6827646 20.874052,6.5099119 20.434002,6.2520206 20.251997,6.2244861 18.905357,6.212085 17.335472,6.1976259 16.728891,6.0962655 15.992196,5.725264 15.203088,5.3278786 14.869967,4.7180015 14.874499,3.6790092 c 0.006,-1.362881 0.564053,-2.1360343 2.276254,-3.15323754 0.59366,-0.3527015 0.479824,-0.3363269 1.689742,-0.2430522 0.979253,0.075495 2.697086,0.1525323 3.405586,0.1527267 0.378115,8.79e-5 0.507893,0.013973 0.507183,0.054194 -4.04e-4,0.029737 -0.07775,0.3167739 -0.171648,0.63787354 -0.09387,0.3210985 -0.213937,0.8086348 -0.266783,1.0834146 l -0.09611,0.4995976 -0.415065,-0.116524 C 21.575361,2.5299123 21.092289,2.4259162 20.730152,2.3629023 19.99186,2.2344279 18.312189,2.0356762 17.964756,2.035674 c -0.219119,0 -0.227034,0.0042 -0.227034,0.1195015 0,0.1723747 0.266516,0.5426429 0.552913,0.768176 0.266829,0.2101104 0.745359,0.4156805 1.210075,0.5198252 0.181306,0.040631 0.82153,0.088276 1.696669,0.1262613 1.180488,0.05124 1.451187,0.075242 1.691051,0.149936 0.359969,0.1120988 0.63705,0.3472084 0.778725,0.6607465 0.09256,0.2048062 0.103327,0.28959 0.103327,0.812486 0,0.6761426 -0.05889,0.9482752 -0.326967,1.5104985 -0.352921,0.7402291 -0.749508,1.1717951 -1.347916,1.4668101 -1.170141,0.576857 -2.704501,0.82867 -4.226401,0.693618 z m -21.148847,-0.16974 c -0.935522,-0.060268 -1.1751053,-0.138312 -1.6948731,-0.552152 -0.7459508,-0.593903 -0.9308473,-1.051038 -0.9741891,-2.4084602 -0.021389,-0.6691266 0.062571,-5.33772564 0.096657,-5.37608424 0.014099,-0.015841 2.8410198,0.2462253 2.8599367,0.2651199 0.00693,0.00695 0.046277,0.47538804 0.087417,1.04094924 0.072045,0.9907783 0.1135683,1.2015618 0.2233732,1.1336976 0.027099,-0.016753 0.1686492,-0.4040662 0.3145286,-0.8607104 0.1458805,-0.4566404 0.3244578,-0.94304034 0.3968258,-1.08088814 0.3780115,-0.7200916 1.34388825,-0.9565995 2.47430305,-0.6058714 0.1189396,0.036896 0.2317542,0.08119 0.2507154,0.098421 0.049586,0.045059 -0.6454187,2.77004964 -0.8303185,3.25547654 l -0.0452889,0.1188861 -0.4471071,-0.276372 C -1.1406531,3.0916344 -1.5201907,2.9005884 -1.650792,2.9005884 c -0.081029,0 -0.1653839,0.086663 -0.3892954,0.4000233 -0.1572103,0.2200106 -0.3690674,0.5632614 -0.470803,0.7627781 -0.1725461,0.338404 -0.1842243,0.3834025 -0.1741745,0.6703081 0.015677,0.4469526 0.09225,1.1037573 0.1388039,1.1907564 0.057856,0.108104 0.5750989,0.2499885 1.3532047,0.3711958 0.089199,0.013897 0.1621715,0.034498 0.1621715,0.04578 0,0.033881 -0.5527713,1.433169 -0.7633851,1.932429 l -0.1961286,0.46489 -0.3959712,-0.0065 c -0.2177789,-0.0037 -0.6197697,-0.0209 -0.8932777,-0.03848 z"
         id="path449" />
    </g>
  </g>
</svg>
