<?xml version="1.0" encoding="UTF-8" standalone="no"?>
<!-- Created with Inkscape (http://www.inkscape.org/) -->

<svg
   version="1.1"
   id="svg437"
   width="72mm"
   height="36mm"
   viewBox="0 0 272.12599 136.06299"
   sodipodi:docname="crystal_logo_72x36.svg"
   inkscape:version="1.1.1 (3bf5ae0d25, 2021-09-20)"
   xmlns:inkscape="http://www.inkscape.org/namespaces/inkscape"
   xmlns:sodipodi="http://sodipodi.sourceforge.net/DTD/sodipodi-0.dtd"
   xmlns="http://www.w3.org/2000/svg"
   xmlns:svg="http://www.w3.org/2000/svg">
  <defs
     id="defs441">
    <filter
       inkscape:collect="always"
       style="color-interpolation-filters:sRGB"
       id="filter634"
       x="-0.0054400104"
       y="-0.010643437"
       width="1.01088"
       height="1.0212869">
      <feGaussianBlur
         inkscape:collect="always"
         stdDeviation="0.57083079"
         id="feGaussianBlur636" />
    </filter>
    <filter
       inkscape:collect="always"
       style="color-interpolation-filters:sRGB"
       id="filter638"
       x="-0.010185162"
       y="-0.0055680605"
       width="1.0203703"
       height="1.0111361">
      <feGaussianBlur
         inkscape:collect="always"
         stdDeviation="0.20036668"
         id="feGaussianBlur640" />
    </filter>
  </defs>
  <sodipodi:namedview
     id="namedview439"
     pagecolor="#ffffff"
     bordercolor="#666666"
     borderopacity="1.0"
     inkscape:pageshadow="2"
     inkscape:pageopacity="0.0"
     inkscape:pagecheckerboard="0"
     showgrid="false"
     inkscape:zoom="1"
     inkscape:cx="192"
     inkscape:cy="342"
     inkscape:window-width="1920"
     inkscape:window-height="1017"
     inkscape:window-x="-8"
     inkscape:window-y="-8"
     inkscape:window-maximized="1"
     inkscape:current-layer="g447"
     width="373px"
     lock-margins="true"
     units="mm"
     inkscape:document-units="mm" />
  <g
     inkscape:groupmode="layer"
     inkscape:label="Image"
     id="g443"
     style="display:inline">
    <g
       id="g447"
       transform="matrix(0.96358672,0,0,0.96358672,73.113234,34.615371)"
       style="display:inline">
      <path
         style="display:inline;fill:#f68e1d;stroke-width:0.0791989;filter:url(#filter638)"
         d="M 0.71905345,76.824402 C -7.6418588,76.264145 -15.549256,73.350431 -22.250608,68.360486 c -1.757017,-1.308299 -2.941062,-2.34374 -4.754112,-4.15726 -3.590047,-3.59109 -5.989512,-6.931769 -8.2365,-11.467501 -2.434095,-4.913358 -3.847135,-10.068302 -4.315094,-15.741999 -0.1154,-1.399144 -0.115612,-5.039859 -3.56e-4,-6.494316 0.600643,-7.581172 2.981065,-14.467319 7.172972,-20.7501443 1.680482,-2.518711 3.156058,-4.31098 5.381057,-6.5359834 2.221334,-2.22133355 4.002883,-3.68832865 6.535986,-5.3819947 5.864653,-3.921175 12.2825799,-6.2588358 19.3627258,-7.0526616 1.49034855,-0.1670978 4.6227921,-0.2869635 6.7729451,-0.2591762 l 1.8611778,0.024058 0.0203,5.830261 0.0203,5.830256 -3.1090694,0.044169 c -4.02715895,0.057223 -5.6826737,0.2380047 -8.4955,0.9277264 -9.0553363,2.2204197 -16.8055023,8.5522248 -20.8631373,17.0449538 -1.335656,2.795562 -2.313316,6.007918 -2.730503,8.971747 -0.458456,3.257024 -0.417638,6.636779 0.118598,9.82068 2.176763,12.924478 12.393773,23.268256 25.3371058,25.65143 2.10505315,0.387582 3.10293815,0.466964 6.4943228,0.516533 l 3.2075571,0.04688 v 5.821131 5.821138 l -2.930359,0.0085 c -1.6116987,0.0045 -3.3580365,-0.01988 -3.88075155,-0.05489 z"
         id="path455" />
      <path
         style="display:inline;fill:#c3112f;stroke-width:0.0791989;filter:url(#filter634)"
         d="m 23.013571,99.629373 c -1.980802,-0.13112 -5.256802,-1.10739 -7.207122,-2.14774 -1.428942,-0.76224 -1.947026,-1.15243 -2.155301,-1.62328 -0.158121,-0.357479 -1.808825,-8.013316 -1.750161,-8.117082 0.04703,-0.08313 5.026109,-3.559467 5.055716,-3.529803 0.01343,0.0135 0.100094,0.321234 0.192718,0.684002 0.495265,1.940409 1.274413,4.080881 2.008509,5.517984 1.500276,2.936949 3.967656,5.291401 6.192037,5.908659 1.945668,0.53991 3.81191,-0.11101 5.568762,-1.942338 1.533673,-1.598717 2.802738,-4.024607 5.529704,-10.570539 3.26365,-7.83418 4.672852,-11.818157 4.845349,-13.698181 l 0.05438,-0.592794 3.443142,-1.531032 c 3.255066,-1.447466 3.450248,-1.523504 3.573331,-1.392645 0.07159,0.07611 0.879584,1.071991 1.795545,2.213089 l 1.665371,2.074739 0.04607,0.974441 c 0.0253,0.535947 0.06558,1.687225 0.08958,2.558394 0.09251,3.366178 0.372775,8.501965 0.483233,8.855 0.136303,0.435705 0.317657,0.03116 1.431308,-3.19224 1.457095,-4.217489 1.793038,-5.075284 3.631646,-9.273063 l 0.297866,-0.680002 3.289346,-1.799819 3.289353,-1.799803 0.511519,0.511482 0.511526,0.511489 -0.572186,2.95829 c -0.314675,1.627084 -0.628808,3.047378 -0.698088,3.15633 -0.172214,0.270669 -3.207552,3.965579 -3.23508,3.938012 -0.01217,-0.01209 -0.218476,-0.644735 -0.458524,-1.405871 -0.577355,-1.830285 -1.365917,-3.970676 -1.491507,-4.048308 -0.177282,-0.109649 -0.280789,0.104694 -0.655745,1.357735 -1.376925,4.601813 -2.575664,10.444384 -3.209214,15.64181 -0.122764,1.007043 -0.198022,1.378721 -0.298606,1.474683 -0.501994,0.479153 -7.490871,5.929691 -7.536004,5.877251 -0.03101,-0.036 -0.780149,-4.930407 -1.66465,-10.876261 -0.884561,-5.94587 -1.625593,-10.856995 -1.64672,-10.913574 -0.121482,-0.325046 -0.39624,0.159344 -2.260025,3.9844 -4.791625,9.833616 -5.939386,12.039154 -7.469038,14.352316 -0.99249,1.500855 -1.815627,2.509842 -2.877544,3.527399 -0.973639,0.93303 -1.860426,1.56203 -2.867076,2.03378 -1.809247,0.84785 -3.450084,1.15569 -5.453379,1.02309 z M 0.36266085,96.340543 C -8.9261934,95.999013 -17.651063,93.759348 -25.812613,89.621383 -42.989967,80.912449 -55.269295,64.746791 -58.990234,45.943222 c -1.652156,-8.349082 -1.597645,-16.982705 0.159515,-25.264488 3.123296,-14.7206223 11.562832,-27.9203182 23.672621,-37.024723 4.89422,-3.679582 10.112777,-6.537435 15.829058,-8.668514 5.300875,-1.976209 10.7236937,-3.185822 16.5237387,-3.685781 0.7622914,-0.06571 1.63546,-0.125271 1.94037955,-0.132363 0.5359707,-0.01246 0.5412348,-0.01447 0.1583954,-0.06058 -0.64606745,-0.0778 2.21180325,-0.165028 5.40670185,-0.165028 2.5996092,0 2.8817642,0.01246 2.8384692,0.125276 -0.02645,0.0689 -0.04807,3.878392 -0.04807,8.465536 v 8.340261 l -3.9797503,0.03825 c -4.23420065,0.04069 -5.3534433,0.111933 -7.9001068,0.502818 -4.1118706,0.631133 -7.9825026,1.7561908 -11.6647946,3.3905574 -13.466766,5.9771563 -23.391534,18.2333016 -26.33939,32.5266236 -0.741696,3.596282 -0.921241,5.436842 -0.91846,9.415501 0.0024,3.348138 0.06786,4.30134 0.479076,6.969513 2.252829,14.617392 11.531863,27.321273 24.82134,33.982708 5.129452,2.571183 10.2576134,4.037818 16.3545979,4.677332 0.4791536,0.05022 2.7244451,0.112935 4.9895353,0.139233 l 4.1183505,0.04785 v 8.395091 8.395109 l -3.2471566,0.004 c -1.7859403,0.003 -3.51445875,-0.006 -3.84115375,-0.0174 z M 106.17925,89.047299 c -1.2831,-5.364707 -1.65395,-6.683451 -2.05955,-7.322957 -0.26813,-0.422819 -0.72447,-0.782791 -1.24371,-0.981088 -0.19479,-0.07441 -0.33922,-0.174337 -0.32098,-0.222058 0.17017,-0.445148 1.20376,-3.696556 1.40594,-4.42293 0.24067,-0.864398 0.27286,-0.930592 0.4532,-0.930592 0.32602,0 2.1002,0.381433 2.79493,0.600924 0.9209,0.2909 1.39202,0.76595 2.00091,2.017752 0.77453,1.592389 1.3242,3.790264 2.15259,8.607757 0.0313,0.181428 0.0874,0.257398 0.19045,0.257398 0.11255,0 0.23759,-0.223252 0.5433,-0.97016 0.68141,-1.66468 1.43976,-3.749344 2.05275,-5.642959 0.32432,-1.001866 0.6201,-1.898177 0.65721,-1.991862 0.0582,-0.146771 0.31818,-0.231072 1.88503,-0.611309 0.9996,-0.242644 1.96067,-0.463983 2.13568,-0.491979 l 0.31822,-0.05089 0.47408,0.596584 c 1.011,1.272254 1.86736,2.937913 2.23223,4.341819 0.12868,0.495243 0.37769,1.571551 0.55328,2.391921 0.5236,2.445348 0.60601,2.703786 0.83427,2.616176 0.2026,-0.07773 1.63372,-3.790182 2.08992,-5.421473 0.44926,-1.606454 0.35629,-2.47663 -0.35337,-3.305717 l -0.2737,-0.319786 1.13019,-0.594618 c 1.90849,-1.004114 2.97295,-1.491701 3.14048,-1.438564 0.24659,0.0783 1.23079,1.166009 1.44047,1.592054 0.17103,0.347509 0.19186,0.491935 0.18776,1.301653 -0.003,0.626925 -0.061,1.18233 -0.18581,1.78197 -0.22517,1.082339 -0.83923,2.977579 -1.05266,3.248902 -0.0877,0.111444 -1.09125,0.899018 -2.23012,1.750152 -1.1389,0.851127 -2.12417,1.618568 -2.18952,1.705474 -0.0653,0.08682 -0.51134,0.857966 -0.99109,1.713551 -0.86204,1.537338 -0.87603,1.556388 -1.18798,1.625125 -1.8005,0.396618 -3.65508,0.902187 -4.40262,1.200074 -0.10539,0.04199 -0.14996,-0.06788 -0.26236,-0.646381 -0.50831,-2.616488 -1.85705,-6.801849 -2.23921,-6.948508 -0.15769,-0.06046 -0.42174,0.230791 -1.44148,1.590379 -0.97569,1.300874 -1.57209,2.239387 -2.3451,3.690288 l -0.5544,1.040575 -1.06921,0.218979 c -1.15499,0.236561 -2.56439,0.672636 -3.17655,0.982823 -0.21016,0.106511 -0.39409,0.193624 -0.40867,0.193624 -0.0146,0 -0.3228,-1.238456 -0.6848,-2.752137 z m 68.9764,-4.310068 c 0,-8.397493 0.11042,-12.158819 0.43862,-15.061636 0.0632,-0.559529 0.11503,-1.032614 0.11503,-1.051338 0,-0.187237 4.66192,-1.285748 6.32615,-1.490603 0.38855,-0.04785 0.42103,-0.03991 0.37106,0.09024 -0.0301,0.07849 -0.15824,0.491088 -0.28476,0.91683 -0.88589,2.981829 -1.30264,7.942301 -1.24912,14.867625 0.0276,3.575424 0.0271,3.573369 0.59585,2.494799 0.46588,-0.883574 1.2232,-2.6861 1.56393,-3.72235 0.5123,-1.558064 0.70499,-2.676315 0.70398,-4.085317 v -1.234209 l 2.56484,-0.473663 c 1.41066,-0.260537 2.58103,-0.447552 2.60076,-0.415534 0.0577,0.09346 -0.18385,1.671259 -0.36528,2.385208 -0.24898,0.979871 -0.36607,1.190245 -1.33469,2.397901 -1.28745,1.605274 -1.90263,2.644832 -1.57215,2.656738 1.79295,0.06461 2.71332,0.38868 3.68631,1.297848 0.56311,0.526124 1.49438,1.725383 1.99761,2.572482 l 0.3326,0.559841 -0.77586,0.931303 c -1.4058,1.687395 -3.07917,3.506515 -3.14654,3.420626 -0.0147,-0.01877 -0.1264,-0.230166 -0.24811,-0.469761 -0.77072,-1.517227 -2.31886,-2.981502 -4.38989,-4.152149 -0.53758,-0.303829 -0.7325,-0.343739 -0.86998,-0.178052 -0.18032,0.217295 -1.41839,2.726039 -1.56865,3.178583 l -0.15667,0.471972 -2.41005,0.525606 c -1.32553,0.289045 -2.52586,0.551726 -2.66745,0.583706 l -0.2574,0.05809 V 84.737214 Z M 93.02554,91.164182 C 90.488896,90.27428 88.977581,88.975588 88.373141,87.166295 88.179644,86.58707 88.161639,86.427399 88.16319,85.305143 c 7.42e-4,-0.818405 0.0727,-1.834788 0.214773,-3.049158 0.296397,-2.533402 0.301768,-2.599891 0.22053,-2.724956 -0.05823,-0.08958 -0.22889,-0.101155 -0.869309,-0.05912 l -0.796928,0.05223 0.522164,-0.891223 c 0.287219,-0.490169 0.695921,-1.195986 0.908254,-1.568531 l 0.386084,-0.677295 v -1.431978 -1.431947 l 0.613779,-0.05363 c 0.33759,-0.02945 1.519416,-0.158416 2.626317,-0.286515 1.106886,-0.128084 2.02833,-0.232897 2.04761,-0.232897 0.01936,0 0.02248,0.561325 0.0067,1.247403 l -0.02804,1.247403 0.791989,0.06343 c 0.435548,0.03487 1.282,0.04711 1.88094,0.02723 0.97534,-0.03234 1.08901,-0.0224 1.08894,0.09504 0,0.146072 -0.4584,2.750319 -0.51951,2.951992 -0.0464,0.153261 -0.26726,0.188098 -1.977256,0.312227 -0.762285,0.05534 -1.305688,0.130065 -1.367193,0.18806 -0.073,0.06884 -0.125405,0.639477 -0.183899,2.00233 -0.06795,1.583762 -0.06239,2.018939 0.03323,2.572846 0.257058,1.489579 1.032971,2.413686 2.508788,2.987845 0.28789,0.112046 0.53315,0.232073 0.54497,0.266694 0.0406,0.118996 -2.87876,4.487373 -2.999025,4.48758 -0.06528,0 -0.421773,-0.106036 -0.791982,-0.235922 z m 49.98115,0.14404 c -3.1296,-0.347746 -6.27859,-2.190153 -7.40025,-4.329809 -0.83781,-1.598182 -0.73877,-3.716318 0.26704,-5.712416 0.74303,-1.474528 2.36058,-3.280393 4.15666,-4.640486 1.59653,-1.20908 1.4578,-1.146158 2.34098,-1.06185 1.50817,0.143959 4.4197,0.23944 5.69529,0.186859 l 1.30437,-0.05378 -0.12165,0.190856 c -0.467,0.732531 -0.71308,1.199393 -0.6911,1.311164 0.0141,0.07159 0.26848,0.258637 0.56538,0.415711 1.68514,0.891475 2.52578,2.730877 2.40747,5.268003 -0.0903,1.93854 -0.85381,3.878943 -2.02045,5.135321 -0.42686,0.45974 -1.50747,1.197508 -2.43158,1.660185 -0.80937,0.405199 -1.43495,0.782796 -2.1665,1.307594 -0.64622,0.463582 -0.64254,0.462966 -1.90566,0.322642 z m 2.68169,-3.66132 c 0.1487,-0.17915 0.38865,-1.496789 0.4712,-2.587563 0.17155,-2.266345 -0.21641,-3.904587 -1.16592,-4.923047 -0.77845,-0.835081 -2.24105,-1.645274 -3.01511,-1.670266 -0.35339,-0.01135 -0.36336,-0.0045 -0.57789,0.384377 -0.77884,1.412734 -0.9724,3.349486 -0.49828,4.985628 0.24066,0.830378 0.38486,1.123629 0.87034,1.769418 0.68514,0.911415 1.71771,1.563265 3.16775,1.999748 0.59357,0.178639 0.63246,0.180812 0.74791,0.04169 z m -72.502221,3.390324 c -1.244057,-0.185175 -1.83734,-0.396202 -2.48255,-0.883107 -1.091034,-0.823278 -1.628471,-1.999059 -1.838096,-4.021268 -0.100541,-0.97002 -0.04978,-6.255827 0.06855,-7.131427 l 0.05452,-0.403412 1.975563,-1.675592 c 1.453423,-1.232708 2.029058,-1.67537 2.177965,-1.674917 0.745995,0.0022 5.497154,0.417232 5.964155,0.520917 1.271171,0.282131 2.152839,0.899101 2.68389,1.878237 0.258029,0.475748 0.266086,0.517958 0.259936,1.362163 -0.0037,0.479153 -0.06595,1.174118 -0.138811,1.544371 -0.102156,0.519137 -0.369637,2.339059 -0.369637,2.51485 0,0.06714 -2.140554,1.04653 -2.711129,1.240474 -0.849703,0.28877 -2.024785,0.439064 -3.446599,0.440793 -1.122538,0.0022 -1.207796,0.01187 -1.207796,0.148209 0,0.204017 1.369856,1.508088 1.905143,1.813616 0.513121,0.292926 1.224948,0.495384 1.734863,0.493419 0.869309,-0.003 2.057352,-0.410075 2.847582,-0.974879 0.578438,-0.413457 0.568995,-0.412641 0.437262,-0.03679 -0.4577,1.30603 -1.431881,2.78259 -2.323644,3.521796 -0.576043,0.477485 -1.531278,0.973173 -2.264832,1.175276 -0.466616,0.128544 -2.76759,0.230404 -3.326363,0.147238 z m 4.117974,-7.870137 c 0.116466,-0.0967 0.129566,-0.248942 0.101741,-1.184199 -0.02626,-0.886638 -0.06402,-1.155157 -0.216562,-1.543829 -0.238742,-0.608209 -0.789621,-1.163621 -1.469632,-1.48185 -0.606413,-0.283785 -1.412347,-0.396119 -1.484927,-0.206969 -0.0891,0.232251 -0.48097,4.312799 -0.4275,4.452069 0.05082,0.132357 0.171882,0.140102 1.708952,0.109101 1.263049,-0.02552 1.685859,-0.05964 1.787928,-0.144323 z M 162.20163,90.6912 c -1.22556,-0.107423 -1.66462,-0.22912 -2.27778,-0.631234 -0.79157,-0.519137 -1.65412,-1.447696 -1.86271,-2.005252 -0.36729,-0.981651 -0.44096,-1.685599 -0.42869,-4.095956 0.0102,-2.028323 0.16344,-8.489842 0.20194,-8.522394 0.0252,-0.02137 5.0764,0.445466 5.16872,0.477699 0.0513,0.01788 0.13917,0.785883 0.22393,1.958102 0.0767,1.06076 0.16996,1.960082 0.2072,1.998583 0.16657,0.171851 0.316,-0.08379 0.62727,-1.073237 0.79557,-2.528722 0.92911,-2.806743 1.55485,-3.237277 0.67702,-0.4658 1.08193,-0.580338 2.05422,-0.581168 0.66273,-7.13e-4 1.02313,0.04169 1.50606,0.176791 0.34918,0.09767 0.67975,0.205279 0.73459,0.23918 0.0765,0.04733 -0.0213,0.530049 -0.4204,2.075296 -0.62227,2.40928 -1.06184,3.970764 -1.14177,4.055881 -0.0321,0.0342 -0.37613,-0.138253 -0.76445,-0.383286 -0.8657,-0.546214 -1.87852,-1.064921 -2.07944,-1.064921 -0.19413,0 -1.07121,1.222573 -1.56247,2.177978 l -0.3665,0.712785 0.0533,0.752381 c 0.0759,1.069558 0.18909,1.832036 0.28986,1.953443 0.12104,0.145866 1.07218,0.419919 1.98461,0.571837 l 0.76784,0.127877 -0.4595,1.187982 c -0.25276,0.653408 -0.64671,1.642403 -0.8755,2.197793 l -0.41594,1.009803 -1.04077,-0.01135 c -0.57243,-0.0067 -1.32776,-0.0365 -1.67857,-0.06728 z M 27.171513,55.201576 c -1.870604,-0.153468 -3.766035,-0.520909 -5.288456,-1.025322 -4.067394,-1.347645 -6.844064,-4.424822 -7.464943,-8.272824 -0.164054,-1.016824 -0.162623,-3.086725 0.003,-4.355758 0.635908,-4.872042 3.115855,-9.738892 6.78081,-13.307161 4.519204,-4.400021 11.419633,-7.049918 17.236721,-6.619241 1.081671,0.08009 2.700143,0.286898 2.766804,0.353557 0.0158,0.01586 0.265936,0.912196 0.555753,1.991893 l 0.526957,1.963093 -0.173462,1.116612 c -0.319378,2.056226 -1.683403,7.655128 -1.865744,7.658284 -0.03828,7.11e-4 -0.214076,-0.330476 -0.390749,-0.735866 -0.176614,-0.40539 -0.748169,-1.587629 -1.270125,-2.627203 -0.744415,-1.48269 -0.999804,-1.921046 -1.18477,-2.033519 -0.300915,-0.182997 -1.684755,-0.643164 -2.70791,-0.900445 -4.44885,-1.11874 -8.880163,-0.543805 -11.82321,1.533992 -1.815137,1.28154 -3.393817,3.374446 -4.159314,5.514111 -0.433879,1.21293 -0.569545,2.088086 -0.569804,3.676323 0,1.691565 0.08348,2.128907 0.629499,3.286755 0.748079,1.586183 1.818809,2.569406 4.003405,3.676254 4.664365,2.363261 11.238701,3.577637 21.066339,3.891287 1.50245,0.04792 2.736203,0.09339 2.741582,0.100978 0.01283,0.01795 -2.835171,3.745354 -2.938982,3.846531 -0.04362,0.04251 -0.595984,0.167912 -1.227596,0.278682 -2.622667,0.460073 -5.821228,0.833041 -8.530614,0.994766 -1.566581,0.09349 -5.546685,0.09008 -6.71521,-0.0059 z m 48.311399,-0.28285 c -2.30317,-0.28524 -4.137357,-0.680641 -5.486048,-1.18259 -0.865496,-0.322101 -2.320054,-1.04409 -2.653156,-1.316964 -0.150583,-0.123343 -0.367701,-0.535449 -0.692976,-1.315413 -0.260515,-0.624684 -0.473701,-1.169792 -0.473701,-1.211357 0,-0.119182 1.64201,-2.495265 1.982174,-2.868314 0.03383,-0.03717 0.300981,0.115977 0.593587,0.340254 1.025107,0.785697 1.686497,1.030195 4.073738,1.50595 2.079931,0.414518 2.772151,0.513203 2.875444,0.409919 0.05668,-0.05675 0.03553,-0.714408 -0.06847,-2.125354 -0.11074,-1.502608 -0.149983,-2.844777 -0.148239,-5.072592 0.0022,-2.772534 -0.0085,-3.029363 -0.129316,-3.029363 -0.20524,0 -4.474531,5.539437 -4.776032,6.196914 -0.210248,0.458552 -0.273985,0.534232 -0.450095,0.534589 -0.279439,7.12e-4 -1.365731,-0.280069 -1.87179,-0.48356 -0.486623,-0.195664 -0.445889,-0.05979 -0.615078,-2.050396 -0.239387,-2.81588 -0.290187,-4.006687 -0.333569,-7.8209 l -0.04436,-3.900553 h 0.408634 c 1.252463,0 3.886226,-0.407882 5.294695,-0.819979 l 0.653401,-0.191166 v 0.233333 c 0,0.128335 -0.0368,0.738969 -0.08171,1.356966 -0.145087,1.995643 -0.377219,6.736632 -0.335157,6.846184 0.02248,0.05849 0.09674,0.09557 0.165168,0.08239 0.299809,-0.05774 2.17789,-3.578331 2.568588,-4.814961 0.245514,-0.777009 0.566294,-2.097456 0.697472,-2.870968 0.07887,-0.465207 0.112713,-0.534748 0.260737,-0.535789 0.225441,-0.0018 5.866175,0.417314 5.893964,0.437707 0.01187,0.0087 -0.05052,0.457564 -0.138626,0.997452 -0.248608,1.523085 -0.676716,5.288021 -1.069853,9.408521 -0.387241,4.058783 -0.515978,5.090132 -0.756901,6.064016 -0.404607,1.635681 -1.898785,3.894311 -4.284742,6.476993 -0.39236,0.42474 -0.737398,0.766884 -0.766745,0.760371 -0.02938,-0.0067 -0.160368,-0.02515 -0.291041,-0.04132 z m 59.861018,-8.480513 c 0.10595,-0.678058 0.21525,-2.790013 0.23258,-4.492648 0.022,-2.165811 0.0182,-2.17282 -0.70487,-1.292017 -0.58322,0.710478 -2.7809,3.091845 -4.35825,4.722512 l -1.17512,1.214821 -0.94581,-0.289112 c -0.5202,-0.159017 -1.21782,-0.394021 -1.5503,-0.522231 l -0.60452,-0.233119 -0.21234,-1.563779 c -0.31683,-2.33272 -0.39208,-3.3965 -0.34882,-4.929738 0.0327,-1.158018 0.0734,-1.516135 0.24696,-2.177299 0.38851,-1.479261 0.94982,-2.420017 2.25532,-3.780171 0.72003,-0.750162 2.66001,-2.483324 2.9631,-2.647232 0.14219,-0.07688 2.60022,0.350997 5.52231,0.961268 1.55777,0.32534 2.33928,0.667931 3.02108,1.324356 0.72337,0.696435 1.06584,1.422725 1.30671,2.771072 0.11147,0.623982 0.13273,1.407672 0.13926,5.131985 0.004,2.41755 0.0255,4.446093 0.0473,4.507877 0.0277,0.07856 -0.0556,0.133959 -0.27718,0.184269 -1.24804,0.283445 -2.82644,0.678468 -4.04828,1.013172 -0.78913,0.216153 -1.46191,0.393008 -1.49514,0.393008 -0.0332,0 -0.0395,-0.133651 -0.0139,-0.296994 z m -3.31004,-5.029142 c 0.78039,-0.86779 2.70924,-3.602661 3.15645,-4.475457 0.16596,-0.323926 0.11257,-0.43287 -0.46389,-0.946675 -0.69463,-0.619107 -2.28013,-1.302011 -3.3092,-1.425356 l -0.3762,-0.04509 v 0.506026 c 0,0.665162 0.31195,6.394143 0.36117,6.624146 0.0593,0.276699 0.2258,0.214086 0.63199,-0.237596 z m 20.0741,5.173836 c -2.03652,-0.672207 -3.28922,-1.978983 -3.82673,-3.991947 -0.15881,-0.594718 -0.17283,-0.833845 -0.17283,-2.944062 0,-1.263228 0.0437,-3.954015 0.0971,-5.979531 0.0533,-2.025514 0.1206,-5.077528 0.1493,-6.782249 l 0.0522,-3.099505 1.27547,-0.325528 c 0.70155,-0.179042 2.03374,-0.527127 2.96043,-0.77352 0.92669,-0.24639 1.69936,-0.433507 1.71705,-0.415811 0.0177,0.01771 -0.12331,2.758459 -0.31335,6.090593 -0.64849,11.370509 -0.69724,12.426238 -0.58051,12.566903 0.10328,0.124439 1.83157,1.278925 2.56191,1.711336 l 0.37283,0.220722 -1.17624,1.205889 c -0.64695,0.663239 -1.44171,1.535096 -1.7661,1.937448 -0.64989,0.806063 -0.65579,0.808593 -1.35054,0.579262 z M 116.23082,46.25749 c -0.91608,-0.314253 -2.17312,-0.945918 -2.7593,-1.386556 -1.03501,-0.778021 -1.80134,-1.898404 -2.08354,-3.046064 -0.16042,-0.652456 -0.1176,-2.245723 0.11594,-4.316348 0.11304,-1.001867 0.2283,-2.054976 0.25614,-2.340231 0.0693,-0.710004 0.0168,-0.747739 -0.88562,-0.637341 -0.38027,0.04651 -0.70653,0.06942 -0.72504,0.05091 -0.0185,-0.01852 0.36218,-0.721889 0.84603,-1.56306 l 0.87966,-1.529406 V 30.05179 28.614181 l 0.4554,-0.04784 c 0.60164,-0.0632 3.81261,-0.421314 4.40807,-0.49161 l 0.46793,-0.05524 -0.0549,1.230428 c -0.0487,1.092165 -0.0405,1.235946 0.0731,1.279558 0.0704,0.02702 0.92702,0.04914 1.90354,0.04914 1.63798,0 1.77552,0.01073 1.77589,0.138597 0.002,0.335037 -0.4999,2.919809 -0.58224,3.004813 -0.054,0.05573 -0.57685,0.130027 -1.27935,0.181796 -1.89833,0.139894 -2.00039,0.154887 -2.06176,0.303021 -0.0304,0.07355 -0.0731,1.095991 -0.0948,2.272096 -0.0433,2.353713 0.007,2.756637 0.4406,3.557612 0.40646,0.749984 1.24797,1.396649 2.29013,1.759809 0.2287,0.07969 0.41297,0.16326 0.40952,0.185703 -0.0165,0.10833 -2.97406,4.468496 -3.04289,4.4861 -0.0435,0.0112 -0.38212,-0.08366 -0.75237,-0.210663 z M 93.820682,46.092545 c -1.497428,-0.132876 -2.901208,-0.498634 -4.141334,-1.079015 -0.535739,-0.250741 -0.772195,-0.402948 -0.772195,-0.497101 0,-0.124056 0.450792,-1.378497 0.742308,-2.065552 l 0.120799,-0.284775 1.013853,0.338062 c 1.754923,0.585195 3.698759,0.872138 5.46769,0.807139 1.19608,-0.04395 1.81669,-0.190298 2.72607,-0.642817 0.82358,-0.409866 0.88599,-0.56975 0.34583,-0.886308 -0.8059,-0.472296 -1.13922,-0.522722 -3.605423,-0.545433 -2.87505,-0.02648 -3.985927,-0.212109 -5.335094,-0.891552 -1.445152,-0.727762 -2.055222,-1.844676 -2.046921,-3.747461 0.0109,-2.495947 1.032993,-3.911881 4.168676,-5.774762 1.087213,-0.645929 0.878738,-0.615941 3.09455,-0.44512 1.793382,0.13826 4.939379,0.279344 6.236909,0.2797 0.69247,1.61e-4 0.93014,0.02559 0.92884,0.09925 -7.4e-4,0.05446 -0.14239,0.580132 -0.31435,1.168186 -0.1719,0.588052 -0.3918,1.480914 -0.48858,1.984139 l -0.17601,0.91495 -0.76014,-0.213399 c -0.4181,-0.117372 -1.302787,-0.307828 -1.965997,-0.42323 -1.35209,-0.235285 -4.428198,-0.599274 -5.064477,-0.599278 -0.401291,0 -0.415786,0.0077 -0.415786,0.218852 0,0.315683 0.488092,0.993783 1.012592,1.406819 0.488663,0.384791 1.365031,0.761267 2.216101,0.951995 0.33204,0.07441 1.50453,0.161666 3.10724,0.231232 2.161917,0.09384 2.657667,0.137798 3.096947,0.274589 0.65924,0.205295 1.16668,0.635869 1.42614,1.210075 0.1695,0.375077 0.18923,0.530348 0.18923,1.487967 0,1.238271 -0.10785,1.736648 -0.5988,2.76629 -0.64633,1.355636 -1.37263,2.145998 -2.46854,2.68628 -2.142967,1.056443 -4.952957,1.517606 -7.740128,1.270274 z m -38.73148,-0.310863 c -1.713292,-0.110376 -2.152059,-0.253303 -3.103949,-1.0112 -1.366116,-1.087657 -1.704731,-1.924844 -1.784106,-4.410794 -0.03917,-1.225422 0.11459,-9.77538 0.177015,-9.845629 0.02582,-0.02901 5.202974,0.450931 5.237618,0.485534 0.01269,0.01272 0.08475,0.870614 0.160093,1.906369 0.131941,1.814487 0.207986,2.200511 0.40908,2.076226 0.04963,-0.03068 0.30886,-0.739997 0.57602,-1.576284 0.267162,-0.83628 0.594204,-1.727061 0.726737,-1.979512 0.692281,-1.318758 2.461164,-1.751893 4.531378,-1.109578 0.217823,0.06757 0.424429,0.148689 0.459154,0.180246 0.09081,0.08252 -1.182004,5.073001 -1.520625,5.962 l -0.08294,0.217725 -0.818821,-0.506141 c -1.049349,-0.648616 -1.744425,-0.998493 -1.983605,-0.998493 -0.148395,0 -0.30288,0.158713 -0.712946,0.732593 -0.287911,0.402922 -0.675901,1.031543 -0.862217,1.396933 -0.315997,0.619745 -0.337384,0.702154 -0.318979,1.227586 0.02871,0.818538 0.168944,2.021394 0.254202,2.180722 0.105955,0.197979 1.053222,0.457823 2.478226,0.679799 0.163358,0.02545 0.296997,0.06318 0.296997,0.08384 0,0.06205 -1.012332,2.624671 -1.398045,3.539003 l -0.359185,0.851389 -0.725172,-0.01187 c -0.398835,-0.0067 -1.135031,-0.03828 -1.635927,-0.07047 z"
         id="path449" />
    </g>
  </g>
</svg>
